<?xml version="1.0"?>
<svg xmlns="http://www.w3.org/2000/svg" height="512px" viewBox="0 0 64 64" width="512px" class=""><g><g id="Air_conditioner-2" data-name="Air conditioner"><path d="m58 25h-25v-2a.9.9 0 0 0 -.035-.173 3 3 0 1 0 -1.93 0 .9.9 0 0 0 -.035.173v2h-25a5.006 5.006 0 0 0 -5 5v12a5.006 5.006 0 0 0 5 5h52a5.006 5.006 0 0 0 5-5v-12a5.006 5.006 0 0 0 -5-5zm-26-6a1 1 0 1 1 -1 1 1 1 0 0 1 1-1zm29 23a3 3 0 0 1 -3 3h-52a3 3 0 0 1 -3-3v-12a3 3 0 0 1 3-3h52a3 3 0 0 1 3 3z" data-original="#000000" class="active-path" data-old_color="#000000" fill="#F5F5F5"/><path d="m56 37h-48a1 1 0 0 0 -1 1v4a1 1 0 0 0 1 1h48a1 1 0 0 0 1-1v-4a1 1 0 0 0 -1-1zm-47 4v-2h12v2zm14 0v-2h8v2zm10 0v-2h8v2zm22 0h-12v-2h12z" data-original="#000000" class="active-path" data-old_color="#000000" fill="#F5F5F5"/><path d="m10 31a3 3 0 1 0 -3 3 3 3 0 0 0 3-3zm-4 0a1 1 0 1 1 1 1 1 1 0 0 1 -1-1z" data-original="#000000" class="active-path" data-old_color="#000000" fill="#F5F5F5"/><path d="m12 32h6a1 1 0 0 0 0-2h-6a1 1 0 0 0 0 2z" data-original="#000000" class="active-path" data-old_color="#000000" fill="#F5F5F5"/><path d="m21 32h1a1 1 0 0 0 0-2h-1a1 1 0 0 0 0 2z" data-original="#000000" class="active-path" data-old_color="#000000" fill="#F5F5F5"/><path d="m29 14.524a1 1 0 1 0 1.5 1.322 2.058 2.058 0 0 1 2.913-.092 1 1 0 1 0 1.415-1.413 4 4 0 0 0 -5.828.183z" data-original="#000000" class="active-path" data-old_color="#000000" fill="#F5F5F5"/><path d="m36.1 13.791a1 1 0 0 0 .684-1.73 7 7 0 0 0 -9.367-.184 1 1 0 0 0 1.31 1.512 5 5 0 0 1 6.689.131 1 1 0 0 0 .684.271z" data-original="#000000" class="active-path" data-old_color="#000000" fill="#F5F5F5"/><path d="m26 11.463a.993.993 0 0 0 .666-.255 8 8 0 0 1 10.667 0 1 1 0 0 0 1.334-1.491 10 10 0 0 0 -13.335 0 1 1 0 0 0 .668 1.746z" data-original="#000000" class="active-path" data-old_color="#000000" fill="#F5F5F5"/><path d="m27.717 49.7a1 1 0 0 0 -1.424-1.4 2.347 2.347 0 0 0 0 3.414c.112.112.281.281 0 .586a1 1 0 1 0 1.414 1.414 2.347 2.347 0 0 0 0-3.414c-.107-.119-.28-.287.01-.6z" data-original="#000000" class="active-path" data-old_color="#000000" fill="#F5F5F5"/><path d="m20.717 49.7a1 1 0 0 0 -1.424-1.4 2.347 2.347 0 0 0 0 3.414c.112.112.281.281 0 .586a1 1 0 1 0 1.414 1.414 2.347 2.347 0 0 0 0-3.414c-.107-.119-.28-.287.01-.6z" data-original="#000000" class="active-path" data-old_color="#000000" fill="#F5F5F5"/><path d="m44.717 49.7a1 1 0 0 0 -1.424-1.4 2.347 2.347 0 0 0 0 3.414c.112.112.281.281 0 .586a1 1 0 1 0 1.414 1.414 2.347 2.347 0 0 0 0-3.414c-.107-.119-.28-.287.01-.6z" data-original="#000000" class="active-path" data-old_color="#000000" fill="#F5F5F5"/><path d="m37.717 49.7a1 1 0 0 0 -1.424-1.4 2.347 2.347 0 0 0 0 3.414c.112.112.281.281 0 .586a1 1 0 1 0 1.414 1.414 2.347 2.347 0 0 0 0-3.414c-.107-.119-.28-.287.01-.6z" data-original="#000000" class="active-path" data-old_color="#000000" fill="#F5F5F5"/></g></g> </svg>
