<?xml version="1.0" encoding="utf-8"?>
<!-- Generator: Adobe Illustrator 17.0.0, SVG Export Plug-In . SVG Version: 6.00 Build 0)  -->
<!DOCTYPE svg PUBLIC "-//W3C//DTD SVG 1.1 Tiny//EN" "http://www.w3.org/Graphics/SVG/1.1/DTD/svg11-tiny.dtd">
<svg version="1.1" baseProfile="tiny" id="Warstwa_1"
	 xmlns="http://www.w3.org/2000/svg" xmlns:xlink="http://www.w3.org/1999/xlink" x="0px" y="0px" width="192.756px" height="74px"
	 viewBox="0 0 192.756 74" overflow="scroll" xml:space="preserve">
<g>
	<polygon fill-rule="evenodd" fill="#FFFFFF" points="0,0 192.756,0 192.756,74 0,74 0,0 	"/>
	<path fill-rule="evenodd" fill="#2E3192" d="M28.949,11.99c9.007,0,16.685,4.997,19.397,11.899H26.395l-9.303,19.638
		C11.9,40.369,8.504,35.2,8.504,29.378C8.504,19.801,17.688,11.99,28.949,11.99L28.949,11.99z"/>
	<path fill-rule="evenodd" fill="#ED1C24" d="M49.211,27.062c0.12,0.758,0.183,1.531,0.183,2.316
		c0,9.577-9.184,17.387-20.445,17.387c-1.546,0-3.052-0.148-4.501-0.427l5.313-12.137c1.121-2.561-0.436-5.06-3.168-7.139H49.211
		L49.211,27.062z"/>
	<path fill-rule="evenodd" fill="#2E3192" d="M93.515,18.386h-20.25c-5.333,0-12.046,5.4-13.273,10.53l-0.848,3.544
		c-1.768,7.384,2.848,12.15,7.52,12.15H82.56c2.531,0,5.281-3.089,5.889-5.569l2.533-10.327l-13.976,0.102L75.04,32.46h6.379
		c1.051,0,0.525,2.133,0.18,3.139l-1.144,3.341c-0.375,1.096-1.38,2.43-2.526,2.43h-7.594c-3.192,0-3.719-5.899-2.885-9.011
		l0.95-3.544c0.984-3.674,5.319-7.087,9.088-7.087h15.187C92.955,20.614,93.235,19.5,93.515,18.386L93.515,18.386z M184.252,18.386
		h-15.699c-5.333,0-12.045,5.4-13.273,10.53l-0.849,3.544c-1.767,7.384,2.848,12.15,7.52,12.15h15.896l0.855-3.215H165.55v-0.028
		c-3.097-0.088-3.629-5.81-2.835-8.919h18.022l0.795-3.162h-17.971l0.126-0.471c0.984-3.674,5.319-7.087,9.088-7.087h10.637
		C183.692,20.614,183.972,19.5,184.252,18.386L184.252,18.386z M155.1,18.386h-15.699c-5.333,0-12.045,5.4-13.273,10.53
		l-0.848,3.544c-1.767,7.384,2.849,12.15,7.52,12.15h15.896l0.855-3.215h-13.152v-0.028c-3.097-0.088-3.63-5.81-2.836-8.919h18.023
		l0.795-3.162H134.41l0.126-0.471c0.984-3.674,5.319-7.087,9.088-7.087h10.637C154.54,20.614,154.821,19.5,155.1,18.386
		L155.1,18.386z M97.616,18.386l-6.48,26.122l8.404,0.101l5.467-22.984h10.429c1.404,0,2.172,2.365,1.924,3.746
		c-0.284,1.574-1.945,3.999-4.455,3.999h-7.67l8.278,15.137h9.416l-6.683-11.947c4.353-0.63,8.77-3.921,9.011-8.508
		c0.116-2.216-2.162-5.667-5.999-5.667H97.616L97.616,18.386z"/>
</g>
</svg>
