<?xml version="1.0" encoding="utf-8"?>
<!-- Generator: Adobe Illustrator 17.0.0, SVG Export Plug-In . SVG Version: 6.00 Build 0)  -->
<!DOCTYPE svg PUBLIC "-//W3C//DTD SVG 1.1 Tiny//EN" "http://www.w3.org/Graphics/SVG/1.1/DTD/svg11-tiny.dtd">
<svg version="1.1" baseProfile="tiny" id="Warstwa_1"
	 xmlns="http://www.w3.org/2000/svg" xmlns:xlink="http://www.w3.org/1999/xlink" x="0px" y="0px" width="213px" height="121px"
	 viewBox="0 0 213 121" xml:space="preserve">
<g>
	<polygon fill-rule="evenodd" fill="#FFFFFF" points="10,-26 202.756,-26 202.756,166.756 10,166.756 10,-26 	"/>
	<path fill-rule="evenodd" fill="#C40452" d="M62.979,109.844c21.797,0,39.467-17.67,39.467-39.467
		c0-21.796-17.67-39.466-39.467-39.466s-39.467,17.67-39.467,39.466C23.512,92.174,41.182,109.844,62.979,109.844L62.979,109.844z"
		/>
	<polygon fill-rule="evenodd" fill="#FFFFFF" points="72.589,84.265 64.415,84.265 64.415,53.377 61.385,53.377 61.385,87.316 
		64.415,87.316 64.415,87.294 72.589,87.294 72.589,84.265 	"/>
	<path fill-rule="evenodd" fill="#FFFFFF" d="M92.988,71.64H72.637v-3.029h23.334c0.031,0.586,0.046,1.173,0.046,1.767
		c0,18.247-14.792,33.038-33.038,33.038c-18.246,0-33.038-14.792-33.038-33.038c0-18.246,14.792-33.038,33.038-33.038
		c0.482,0,0.961,0.01,1.437,0.031l-0.004,3.008c-0.475-0.022-0.953-0.033-1.434-0.033c-16.586,0-30.033,13.446-30.033,30.032
		c0,16.587,13.446,30.033,30.033,30.033c16.134,0,29.296-12.722,30.003-28.681L92.988,71.64L92.988,71.64z"/>
	<path fill-rule="evenodd" fill="#FFFFFF" d="M50.655,62.521c2.563,0,4.642-2.078,4.642-4.642c0-2.564-2.078-4.641-4.642-4.641
		c-2.564,0-4.642,2.078-4.642,4.641C46.013,60.443,48.091,62.521,50.655,62.521L50.655,62.521z"/>
	<polygon fill-rule="evenodd" fill="#808285" points="122.043,89.75 150.243,89.75 150.243,81.234 133.223,81.234 132.399,81.234 
		132.399,80.409 132.399,50.734 122.043,50.734 122.043,89.75 	"/>
	<path fill-rule="evenodd" fill="#808285" d="M184.318,53.482c-3.235-2.505-7.396-3.775-12.365-3.775
		c-5.9,0-10.828,1.811-14.254,5.236c-3.578,3.579-5.471,8.851-5.471,15.246c0,6.832,2.002,12.596,5.637,16.23
		c2.851,2.851,6.657,4.359,11.006,4.359c9.551,0,11.749-5.725,11.749-5.725v2.631v2.067h8.624V67.715h-17.169v6.894h6.908h0.995
		c0,0,0.076,8.68-8.08,8.68c-2.072,0-3.918-0.751-5.339-2.172c-2.213-2.211-3.381-5.935-3.381-10.766c0-8,3.18-12.776,8.504-12.776
		c3.325,0,5.825,2.042,6.466,5.137h10.985C188.563,58.215,187.329,55.871,184.318,53.482L184.318,53.482z"/>
</g>
</svg>
