<?xml version="1.0"?>
<svg xmlns="http://www.w3.org/2000/svg" xmlns:xlink="http://www.w3.org/1999/xlink" version="1.1" id="Capa_1" x="0px" y="0px" viewBox="0 0 512 512" style="enable-background:new 0 0 512 512;" xml:space="preserve" width="512px" height="512px"><g><g>
	<g>
		<path d="M152.75,163.89c-6.287,0-12.397,1.719-17.701,4.918c-5.17-3.121-11.224-4.92-17.691-4.92    c-18.934,0-34.337,15.403-34.337,34.337c0,18.934,15.404,34.337,34.337,34.337c6.467,0,12.521-1.799,17.691-4.92    c5.304,3.199,11.414,4.918,17.701,4.918c18.935,0,34.34-15.405,34.34-34.34C187.09,179.29,171.685,163.89,152.75,163.89z     M117.358,217.562c-10.662,0-19.337-8.675-19.337-19.337c0-10.662,8.675-19.337,19.337-19.337    c10.662,0,19.337,8.674,19.337,19.337C136.695,208.888,128.02,217.562,117.358,217.562z M152.75,217.56    c-2.178,0-4.312-0.381-6.33-1.081c3.336-5.292,5.275-11.549,5.275-18.254c0-6.705-1.939-12.961-5.275-18.254    c2.018-0.7,4.152-1.081,6.329-1.081c10.665,0,19.341,8.672,19.341,19.33C172.09,208.884,163.414,217.56,152.75,217.56z" data-original="#000000" class="active-path" data-old_color="#000000" fill="#D77230"/>
	</g>
</g><g>
	<g>
		<path d="M406.918,325.157h-72.743c-4.143,0-7.5,3.358-7.5,7.5c0,4.142,3.357,7.5,7.5,7.5h72.743c4.143,0,7.5-3.358,7.5-7.5    C414.418,328.515,411.061,325.157,406.918,325.157z" data-original="#000000" class="active-path" data-old_color="#000000" fill="#D77230"/>
	</g>
</g><g>
	<g>
		<path d="M310.849,325.157h-14.437c-4.143,0-7.5,3.358-7.5,7.5c0,4.142,3.358,7.5,7.5,7.5h14.437c4.143,0,7.5-3.358,7.5-7.5    C318.349,328.515,314.992,325.157,310.849,325.157z" data-original="#000000" class="active-path" data-old_color="#000000" fill="#D77230"/>
	</g>
</g><g>
	<g>
		<path d="M104.27,325.157H89.832c-4.143,0-7.5,3.358-7.5,7.5c0,4.142,3.357,7.5,7.5,7.5h14.438c4.142,0,7.5-3.358,7.5-7.5    C111.77,328.515,108.413,325.157,104.27,325.157z" data-original="#000000" class="active-path" data-old_color="#000000" fill="#D77230"/>
	</g>
</g><g>
	<g>
		<path d="M437.021,74.974c-10.274-10.264-21.44-19.698-33.188-28.04c-3.376-2.398-8.06-1.604-10.457,1.773    c-2.398,3.377-1.604,8.06,1.773,10.458c11.066,7.858,21.588,16.747,31.268,26.417C471.933,131.109,497,191.631,497,256    s-25.067,124.891-70.583,170.417C380.891,471.933,320.369,497,256,497s-124.891-25.067-170.41-70.577    c-3.302-3.31-6.564-6.774-9.722-10.322c-0.323-0.828-0.8-1.613-1.434-2.311c-2.782-3.068-7.526-3.299-10.594-0.516    c-0.199,0.181-0.395,0.363-0.595,0.562c-2.788,2.789-2.94,7.261-0.349,10.233c3.89,4.459,7.951,8.815,12.08,12.954    C123.337,485.373,187.625,512,256,512s132.663-26.627,181.023-74.977C485.373,388.664,512,324.375,512,256    S485.373,123.336,437.021,74.974z" data-original="#000000" class="active-path" data-old_color="#000000" fill="#D77230"/>
	</g>
</g><g>
	<g>
		<path d="M385.837,98.735c-0.131-2.144-1.174-4.129-2.866-5.452C346.362,64.653,302.457,49.52,256,49.52    c-32.804,0-64.19,7.502-93.288,22.298c-27.74,14.105-52.377,34.704-71.246,59.566C64.024,167.527,49.52,210.619,49.52,256    c0,45.384,14.509,88.476,41.929,124.578c0.604,0.806,1.22,1.613,1.846,2.409c1.326,1.686,3.31,2.723,5.449,2.851    c0.149,0.009,0.298,0.013,0.447,0.013c1.982,0,3.892-0.786,5.303-2.197l2.267-2.267c0.002-0.002,0.004-0.004,0.006-0.006    l276.887-276.887C385.173,102.975,385.967,100.878,385.837,98.735z M199.743,267.19H98.02v-9.99h111.713L199.743,267.19z     M224.733,242.2H90.52c-4.143,0-7.5,3.358-7.5,7.5v24.99c0,4.142,3.357,7.5,7.5,7.5h94.223l-17.14,17.14H89.41    c-4.143,0-7.5,3.358-7.5,7.5c0,4.142,3.357,7.5,7.5,7.5h63.193l-52.588,52.588C76.771,334.384,64.52,296.162,64.52,256    c0-40.844,12.674-79.687,36.689-112.58h222.305L224.733,242.2z M338.513,128.42H113.334c36.36-40.789,87.534-63.9,142.666-63.9    c40.233,0,78.404,12.242,110.925,35.488L338.513,128.42z" data-original="#000000" class="active-path" data-old_color="#000000" fill="#D77230"/>
	</g>
</g><g>
	<g>
		<path d="M420.539,131.405c-0.601-0.8-1.212-1.601-1.833-2.391c-1.326-1.686-3.31-2.723-5.449-2.851    c-2.14-0.131-4.233,0.667-5.75,2.184l-2.267,2.267c-0.002,0.002-0.004,0.004-0.007,0.006L128.347,407.507    c-1.519,1.518-2.314,3.616-2.183,5.759c0.131,2.144,1.174,4.129,2.866,5.452c36.607,28.629,80.513,43.762,126.97,43.762    c68.889,0,132.972-34.241,171.499-91.614c0.074-0.1,0.146-0.201,0.215-0.305C450.458,336.567,462.48,296.953,462.48,256    C462.48,210.624,447.977,167.541,420.539,131.405z M351.773,219.199c0-1.802,1.466-3.268,3.268-3.268h30.605v6.895h0h-33.873    V219.199z M351.773,237.825h33.873v4.373h-33.873V237.825z M351.772,257.198h33.873v5.29H355.04c-1.802,0-3.268-1.466-3.268-3.267    V257.198z M299.867,257.2h6.143v9.99h-16.133L299.867,257.2z M416.296,360.62c-10.348,5.209-21.931,7.96-33.626,7.96H267.33    c-4.143,0-7.5,3.358-7.5,7.5c0,4.142,3.357,7.5,7.5,7.5h115.34c5.897,0,11.771-0.586,17.523-1.728    C364.018,423.321,311.705,447.48,256,447.48c-40.233,0-78.404-12.242-110.925-35.488l28.412-28.412h63.843    c4.143,0,7.5-3.358,7.5-7.5c0-4.142-3.357-7.5-7.5-7.5h-48.843l54.25-54.25H406.92c4.143,0,7.5-3.358,7.5-7.5    c0-4.142-3.357-7.5-7.5-7.5H257.737l17.14-17.14h38.633c4.143,0,7.5-3.358,7.5-7.5V249.7c0-3.717-2.706-6.794-6.254-7.388    l22.017-22.017v38.926c0,10.072,8.194,18.267,18.268,18.267h54.898c10.073,0,18.268-8.195,18.268-18.267v-40.023    c0-10.073-8.194-18.268-18.268-18.268h-53.802l55.849-55.849C435.229,177.616,447.48,215.838,447.48,256    C447.48,293.333,436.699,329.462,416.296,360.62z M400.645,262.489v-46.558h9.293v0c1.802,0,3.268,1.466,3.268,3.268v40.023    c0,1.801-1.466,3.267-3.268,3.267H400.645z" data-original="#000000" class="active-path" data-old_color="#000000" fill="#D77230"/>
	</g>
</g><g>
	<g>
		<path d="M376.858,30.203C340.075,10.444,298.283,0,256,0C187.625,0,123.337,26.627,74.977,74.977C26.627,123.336,0,187.625,0,256    c0,51.707,15.261,101.43,44.133,143.793c1.451,2.13,3.807,3.277,6.204,3.277c1.454,0,2.925-0.422,4.217-1.303    c3.423-2.333,4.307-6.999,1.974-10.421C29.36,351.483,15,304.681,15,256c0-64.369,25.067-124.891,70.583-170.417    C131.109,40.067,191.631,15,256,15c39.814,0,79.152,9.827,113.761,28.417c3.646,1.96,8.195,0.591,10.156-3.058    C381.877,36.71,380.508,32.163,376.858,30.203z" data-original="#000000" class="active-path" data-old_color="#000000" fill="#D77230"/>
	</g>
</g></g> </svg>
