<?xml version="1.0"?>
<svg xmlns="http://www.w3.org/2000/svg" xmlns:xlink="http://www.w3.org/1999/xlink" version="1.1" id="Capa_1" x="0px" y="0px" viewBox="0 0 58 58" style="enable-background:new 0 0 58 58;" xml:space="preserve" width="512px" height="512px" class=""><g><polygon style="fill:#307BC7" points="0,3.5 0,54.5 51,54.5 51,21.5 51,5.5 51,3.5 " data-original="#14A085" class="active-path" data-old_color="#14A085"/><path style="fill:#E0A832" d="M26,39.5c-0.256,0-0.512-0.098-0.707-0.293c-0.391-0.391-0.391-1.023,0-1.414l31-31  c0.391-0.391,1.023-0.391,1.414,0s0.391,1.023,0,1.414l-31,31C26.512,39.402,26.256,39.5,26,39.5z" data-original="#EFCE4A" class="" data-old_color="#EFCE4A"/><path style="fill:#E0A832" d="M26,39.5c-0.256,0-0.512-0.098-0.707-0.293L11.516,25.43c-0.391-0.391-0.391-1.023,0-1.414  s1.023-0.391,1.414,0l13.777,13.777c0.391,0.391,0.391,1.023,0,1.414C26.512,39.402,26.256,39.5,26,39.5z" data-original="#EFCE4A" class="" data-old_color="#EFCE4A"/></g> </svg>
